<svg xmlns="http://www.w3.org/2000/svg" viewBox="0 0 48 48"><path style="line-height:normal;text-indent:0;text-align:start;text-decoration-line:none;text-decoration-style:solid;text-decoration-color:#000;text-transform:none;block-progression:tb;isolation:auto;mix-blend-mode:normal" d="M24 0C10.751 0 0 10.751 0 24s10.751 24 24 24 24-10.751 24-24S37.249 0 24 0zm0 1c12.708 0 23 10.291 23 23S36.708 47 24 47 1 36.709 1 24 11.292 1 24 1zm5 10a2.508 2.508 0 0 0-2.5 2.5c0 .694.289 1.323.75 1.777l-2.307 3.846A3.97 3.97 0 0 0 24 19c-1.197 0-2.262.54-2.996 1.379L20.5 20l-.6.8.543.409A3.946 3.946 0 0 0 20 23c0 .64.166 1.237.436 1.775l-5.694 3.795A2.968 2.968 0 0 0 13 28c-1.65 0-3 1.35-3 3 0 1.651 1.35 3 3 3s3-1.349 3-3c0-.634-.2-1.222-.54-1.707l5.532-3.688C21.727 26.452 22.796 27 24 27c.644 0 1.245-.169 1.785-.441l.389.546.814-.582-.375-.521C27.456 25.268 28 24.201 28 23c0-.021-.005-.04-.006-.06l6.338-.846A2 2 0 0 0 36 23c1.099 0 2-.901 2-2s-.901-2-2-2-2 .901-2 2c0 .044.01.085.014.129l-6.172.822a3.996 3.996 0 0 0-1.955-2.455l2.205-3.674c.282.112.587.178.908.178 1.375 0 2.5-1.125 2.5-2.5S30.375 11 29 11zm0 1c.834 0 1.5.666 1.5 1.5S29.834 15 29 15s-1.5-.666-1.5-1.5.666-1.5 1.5-1.5zm-13 3c-1.099 0-2 .901-2 2s.901 2 2 2c.395 0 .761-.12 1.072-.32l.428.32.6-.799-.348-.262c.153-.282.248-.598.248-.939 0-1.099-.901-2-2-2zm0 1c.558 0 1 .442 1 1s-.442 1-1 1-1-.442-1-1 .442-1 1-1zm2.9 2.8-.6.802.8.6.6-.802-.8-.6zM24 20c1.663 0 3 1.337 3 3s-1.337 3-3 3-3-1.337-3-3 1.337-3 3-3zm12 0c.558 0 1 .442 1 1s-.442 1-1 1-1-.442-1-1 .442-1 1-1zm-8.43 7.338-.814.582.58.812.814-.58-.58-.814zm1.162 1.627-.814.582.582.812.813-.58-.58-.814zM13 29c1.11 0 2 .89 2 2 0 1.11-.89 2-2 2-1.11 0-2-.89-2-2 0-1.11.89-2 2-2zm16.895 1.592-.815.582.582.814.813-.582-.58-.814zM32.5 32a2.47 2.47 0 0 0-1.324.389l-.12-.168-.814.58.203.283A2.48 2.48 0 0 0 30 34.5c0 1.375 1.125 2.5 2.5 2.5s2.5-1.125 2.5-2.5-1.125-2.5-2.5-2.5zm0 1c.834 0 1.5.666 1.5 1.5s-.666 1.5-1.5 1.5-1.5-.666-1.5-1.5.666-1.5 1.5-1.5z" color="#000" font-family="sans-serif" font-weight="400" overflow="visible"></path></svg>