<svg xmlns="http://www.w3.org/2000/svg" xmlns:xlink="http://www.w3.org/1999/xlink" width="32" height="32"><defs><linearGradient id="a"><stop offset="0" stop-color="#000092"/><stop offset="1" stop-color="#ff00f3"/></linearGradient><linearGradient id="b" x1="2" x2="27" y1="16" y2="16" gradientUnits="userSpaceOnUse" xlink:href="#a"/></defs><path style="line-height:normal;text-indent:0;text-align:start;text-decoration-line:none;text-decoration-style:solid;text-decoration-color:#000;text-transform:none;block-progression:tb;isolation:auto;mix-blend-mode:normal" fill="url(#b)" fill-rule="evenodd" d="M16 2a2.508 2.508 0 0 0-2.5 2.5 2.51 2.51 0 0 0 2 2.447v4.102c-.953.095-1.885.439-2.666 1.078l-2.879-2.88a2.51 2.51 0 0 0-.32-3.145 2.507 2.507 0 0 0-3.535 0 2.507 2.507 0 0 0 0 3.535c.85.85 2.177.954 3.146.316l2.881 2.881c-.64.78-.983 1.713-1.078 2.666h-4.1a2.508 2.508 0 0 0-2.449-2A2.508 2.508 0 0 0 2 16c0 1.375 1.125 2.5 2.5 2.5a2.512 2.512 0 0 0 2.45-2h4.097c.095.954.44 1.887 1.08 2.668l-2.879 2.879a2.511 2.511 0 0 0-3.148.318 2.507 2.507 0 0 0 0 3.535 2.507 2.507 0 0 0 3.535 0 2.51 2.51 0 0 0 .32-3.144v-.002l2.877-2.877c.781.639 1.715.981 2.668 1.076v4.098h-.002A2.51 2.51 0 0 0 13.5 27.5c0 1.375 1.125 2.5 2.5 2.5s2.5-1.125 2.5-2.5a2.512 2.512 0 0 0-2-2.45v-4.097c.953-.095 1.886-.44 2.666-1.078l2.879 2.879v.002a2.51 2.51 0 0 0 .318 3.144 2.507 2.507 0 0 0 3.535 0 2.507 2.507 0 0 0 0-3.535 2.513 2.513 0 0 0-3.146-.318l-2.879-2.879c.64-.781.983-1.714 1.078-2.668h4.1v.002A2.51 2.51 0 0 0 27.5 18.5c1.375 0 2.5-1.125 2.5-2.5s-1.125-2.5-2.5-2.5a2.508 2.508 0 0 0-2.45 2h-4.099c-.095-.953-.44-1.886-1.078-2.666l2.879-2.879h.002a2.51 2.51 0 0 0 3.144-.318 2.507 2.507 0 0 0 0-3.535 2.507 2.507 0 0 0-3.535 0 2.513 2.513 0 0 0-.318 3.146l-2.879 2.879c-.78-.64-1.713-.983-2.666-1.078V6.947h.002A2.508 2.508 0 0 0 18.5 4.5C18.5 3.125 17.375 2 16 2zm0 1c.834 0 1.5.666 1.5 1.5S16.834 6 16 6s-1.5-.666-1.5-1.5S15.166 3 16 3zM7.867 6.365c.383 0 .766.149 1.06.444.59.59.59 1.53 0 2.12-.59.59-1.53.59-2.12 0a1.492 1.492 0 0 1 0-2.12 1.496 1.496 0 0 1 1.06-.444zm16.264 0c.383 0 .765.149 1.06.444.59.59.59 1.53 0 2.12-.59.59-1.53.59-2.12 0a1.492 1.492 0 0 1 0-2.12 1.496 1.496 0 0 1 1.06-.444zM16 11.992c1.023 0 2.046.392 2.83 1.176a3.996 3.996 0 0 1 0 5.662 3.996 3.996 0 0 1-5.662 0 3.996 3.996 0 0 1 .002-5.662A3.993 3.993 0 0 1 16 11.992zM4.5 14.5c.834 0 1.5.666 1.5 1.5s-.666 1.5-1.5 1.5S3 16.834 3 16s.666-1.5 1.5-1.5zm23 0c.834 0 1.5.666 1.5 1.5s-.666 1.5-1.5 1.5S26 16.834 26 16s.666-1.5 1.5-1.5zM7.867 22.629c.383 0 .766.148 1.06.443.59.59.59 1.531 0 2.121-.59.59-1.53.59-2.12 0a1.492 1.492 0 0 1 0-2.12 1.496 1.496 0 0 1 1.06-.444zm16.264 0c.383 0 .765.148 1.06.443.59.59.59 1.531 0 2.121-.59.59-1.53.59-2.12 0a1.492 1.492 0 0 1 0-2.12 1.496 1.496 0 0 1 1.06-.444zM16 26c.834 0 1.5.666 1.5 1.5S16.834 29 16 29s-1.5-.666-1.5-1.5.666-1.5 1.5-1.5z" color="#000" font-family="sans-serif" font-weight="400" overflow="visible"/></svg>