<svg xmlns="http://www.w3.org/2000/svg" viewBox="0 0 100 100"><path d="M18.4 69.6c.4.4.6.9.6 1.4v.4c0 .1-.1.3-.1.4 0 .1-.1.2-.2.3l-.3.3c-.4.4-.9.6-1.4.6s-1-.2-1.4-.6c-.1-.1-.2-.2-.2-.3-.1-.1-.1-.2-.2-.3-.1-.1-.1-.2-.1-.4V71c0-.5.2-1 .6-1.4.1-.1.2-.2.3-.2.1-.1.2-.1.3-.2.1 0 .2-.1.4-.1.6-.2 1.3 0 1.7.5zm8.2-.6c-.1 0-.2.1-.4.1-.1.1-.2.1-.3.2-.1.1-.2.2-.3.2-.4.5-.6 1-.6 1.5v.4c0 .1.1.3.1.4 0 .1.1.2.2.3.1.1.1.2.2.3.5.4 1 .6 1.5.6s1-.2 1.4-.6c.1-.1.2-.2.2-.3.1-.1.1-.2.2-.3.1-.1.1-.2.1-.4V71c0-.5-.2-1-.6-1.4-.3-.5-1-.7-1.7-.6zm10 0c-.1 0-.2.1-.4.1-.1.1-.2.1-.3.2-.1.1-.2.2-.3.2-.4.5-.6 1-.6 1.5v.4c0 .1.1.3.1.4 0 .1.1.2.2.3.1.1.1.2.2.3.1.1.2.2.3.2.1.1.2.1.3.2.1 0 .2.1.4.1h.4c.5 0 1-.2 1.4-.6.1-.1.2-.2.2-.3.1-.1.1-.2.2-.3.1-.1.1-.2.1-.4v-.4c0-.5-.2-1-.6-1.4-.2-.4-.9-.6-1.6-.5zM15 27c0-6 4.4-11 10.2-11.8C26 9.4 31 5 37 5h16c1.1 0 2 .9 2 2 0 6-4.4 11-10.2 11.8C44 24.6 39 29 33 29H17c-1.1 0-2-.9-2-2zm14.2-12H43c3.7 0 6.9-2.5 7.8-6H37c-3.7 0-6.9 2.5-7.8 6zm-10 10H33c3.7 0 6.9-2.5 7.8-6H27c-3.7 0-6.9 2.5-7.8 6zM89 56.4V89c0 3.3-2.7 6-6 6H51c-1.5 0-2.9-.6-4-1.5-1.1 1-2.5 1.5-4 1.5H11c-3.3 0-6-2.7-6-6V66c0-2.7 1.7-5 4.3-5.8l5.7-1.7V42c0-3.9 3.1-7 7-7s7 3.1 7 7v12.3l12.3-3.7c1.8-.6 3.8-.2 5.3.9s2.4 2.9 2.4 4.8v4c.1 0 .2-.1.3-.1l5.7-1.7V42c0-3.9 3.1-7 7-7s7 3.1 7 7v12.3l12.3-3.7c1.8-.6 3.8-.2 5.3.9 1.5 1.2 2.4 3 2.4 4.9zm-70 .9 6-1.8V42c0-1.7-1.3-3-3-3s-3 1.3-3 3v15.3zM35 83H19v8h16v-8zm10-26.6c0-.6-.3-1.2-.8-1.6-.3-.3-.8-.4-1.2-.4-.2 0-.4 0-.6.1l-32 9.6c-.8.2-1.4 1-1.4 1.9v23c0 1.1.9 2 2 2h4V81c0-1.1.9-2 2-2h20c1.1 0 2 .9 2 2v10h4c1.1 0 2-.9 2-2V56.4zm14 .9 6-1.8V42c0-1.7-1.3-3-3-3s-3 1.3-3 3v15.3zM75 83H59v8h16v-8zm10-26.6c0-.6-.3-1.2-.8-1.6-.3-.3-.8-.4-1.2-.4-.2 0-.4 0-.6.1l-32 9.6c-.9.3-1.4 1-1.4 1.9v23c0 1.1.9 2 2 2h4V81c0-1.1.9-2 2-2h20c1.1 0 2 .9 2 2v10h4c1.1 0 2-.9 2-2V56.4zM55.6 69.6c-.4.4-.6.9-.6 1.4v.4c0 .1.1.3.1.4 0 .1.1.2.2.3l.3.3c.2.2.4.3.6.4.3.2.5.2.8.2h.4c.1 0 .3-.1.4-.1.1 0 .2-.1.3-.2.1-.1.2-.1.3-.2.1-.1.2-.2.2-.3.1-.1.1-.2.2-.3.1-.1.1-.2.1-.4v-.4c0-.5-.2-1-.6-1.4-.6-.9-2-.9-2.7-.1zm10 0c-.4.4-.6.9-.6 1.4v.4c0 .1.1.3.1.4 0 .1.1.2.2.3l.3.3c.2.2.4.3.6.4.3.2.5.2.8.2h.4c.1 0 .3-.1.4-.1.1 0 .2-.1.3-.2.1-.1.2-.1.3-.2.1-.1.2-.2.2-.3.1-.1.1-.2.2-.3.1-.1.1-.2.1-.4v-.4c0-.5-.2-1-.6-1.4-.6-.9-2-.9-2.7-.1zm13.2.6c0-.1-.1-.2-.2-.3-.1-.1-.1-.2-.2-.3-.1-.1-.2-.2-.3-.2s-.2-.1-.3-.2c-.1 0-.2-.1-.4-.1-.7-.1-1.3.1-1.8.5-.1.1-.2.2-.2.3-.1.1-.1.2-.2.3-.1.1-.1.2-.1.4v.4c0 .5.2 1 .6 1.4.3.4.8.6 1.3.6s1-.2 1.4-.6c.4-.4.6-.9.6-1.4v-.4c-.1-.1-.1-.3-.2-.4zM95 7c0 6-4.4 11-10.2 11.8C84 24.6 79 29 73 29H57c-1.1 0-2-.9-2-2 0-6 4.4-11 10.2-11.8C66 9.4 71 5 77 5h16c1.1 0 2 .9 2 2zM80.8 19H67c-3.7 0-6.9 2.5-7.8 6H73c3.7 0 6.9-2.5 7.8-6zm10-10H77c-3.7 0-6.9 2.5-7.8 6H83c3.7 0 6.9-2.5 7.8-6z"/></svg>