<svg xmlns="http://www.w3.org/2000/svg" width="64" height="64" viewBox="0 0 16.933 16.933"><path d="M8.468 1.001c-.08 0-.158.03-.219.09L6.252 3.08l-2.865-.006a.32.32 0 0 0-.22.09.323.323 0 0 0-.094.224l.006 2.85L1.06 8.245a.309.309 0 0 0-.09.222c0 .084.031.161.09.22L3.09 10.71l.006 2.818c0 .171.14.311.311.311l2.833.006 2.007 2a.336.336 0 0 0 .22.088.324.324 0 0 0 .221-.09l1.997-1.988 2.865.005a.309.309 0 0 0 .311-.311l-.006-2.848 2.019-2.01a.32.32 0 0 0 0-.445l-2.029-2.022-.006-2.818a.312.312 0 0 0-.31-.311l-2.834-.006-2.007-1.997A.309.309 0 0 0 8.468 1Zm-.001.75 1.878 1.87c.06.059.137.09.218.09l2.65.006.007 2.638a.32.32 0 0 0 .09.22l1.903 1.892-1.891 1.882a.296.296 0 0 0-.09.22l.006 2.666-2.681-.005c-.081 0-.162.03-.22.09l-1.87 1.863-1.88-1.87a.305.305 0 0 0-.217-.09l-2.65-.006-.007-2.637a.322.322 0 0 0-.09-.222L1.72 8.468 3.61 6.586a.295.295 0 0 0 .09-.221l-.003-2.666 2.681.006c.081 0 .162-.031.221-.09zm1.978 3.145a.314.314 0 0 0-.28.174l-.323.654-.722.105a.31.31 0 0 0-.252.212.315.315 0 0 0 .078.32l.522.507-.125.719a.314.314 0 0 0 .125.304.317.317 0 0 0 .327.025l.644-.339.643.34a.306.306 0 0 0 .147.034.312.312 0 0 0 .308-.364l-.125-.719.523-.507a.309.309 0 0 0 .078-.317.286.286 0 0 0-.243-.215l-.722-.105-.323-.654a.315.315 0 0 0-.28-.174ZM7.75 4.9a.316.316 0 0 0-.095.008 3.593 3.593 0 0 0-1.696.952 3.623 3.623 0 0 0-.003 5.117 3.608 3.608 0 0 0 2.56 1.058 3.608 3.608 0 0 0 3.512-2.754.31.31 0 0 0-.128-.33v.001a.31.31 0 0 0-.354.006 2.549 2.549 0 0 1-3.297-.273 2.548 2.548 0 0 1-.27-3.295.314.314 0 0 0 .005-.354.302.302 0 0 0-.234-.136zm-.683.895a3.167 3.167 0 0 0 .74 3.328 3.163 3.163 0 0 0 3.332.743 3 3 0 0 1-4.744.67 3 3 0 0 1 .672-4.741zm3.378.112.115.233a.314.314 0 0 0 .233.171l.258.038-.18.186a.31.31 0 0 0-.09.274l.044.258-.23-.121a.347.347 0 0 0-.147-.034c-.05 0-.1.012-.146.034l-.23.121.043-.258a.308.308 0 0 0-.09-.277L9.84 6.35l.257-.038a.304.304 0 0 0 .234-.17z"/></svg>