<svg xmlns="http://www.w3.org/2000/svg" viewBox="0 0 48 48"><g data-name="Layer 2"><path fill="#2d98f5" d="M35,42a1,1,0,0,1-1,1H14a1,1,0,0,1,0-2h2.19l1.56-7h12.5l1.56,7H34A1,1,0,0,1,35,42Z"/><path fill="#b9d5ea" d="M18 18v6a1 1 0 0 1-2 0V18a1 1 0 0 1 2 0zM21 20v3.82a1 1 0 0 1-.8 1 .68.68 0 0 1-.2 0 1 1 0 0 1-1-1V20a1 1 0 0 1 2 0zM24 17v6.2a1 1 0 1 1-2 0V17a1 1 0 0 1 2 0zM27 13v9.11a1 1 0 0 1-2 0V13a1 1 0 0 1 2 0zM30 11v9.43a1 1 0 0 1-2 0V11a1 1 0 0 1 2 0z"/><path fill="#48bdfe" d="M39,5H9A4,4,0,0,0,5,9V30a4,4,0,0,0,4,4H39a4,4,0,0,0,4-4V9A4,4,0,0,0,39,5Zm2,22H7V9A2,2,0,0,1,9,7H39a2,2,0,0,1,2,2Z"/><path fill="#ebf3fe" d="M39,7H9A2,2,0,0,0,7,9V27H41V9A2,2,0,0,0,39,7Zm-1.29,5.71a1,1,0,0,1-1.42,0l-.38-.38a10.57,10.57,0,0,1-3,6.21A21.77,21.77,0,0,1,26.39,23,21.25,21.25,0,0,1,20.2,24.8a.68.68,0,0,1-.2,0,20.63,20.63,0,0,1-2.73.18H11a1,1,0,0,1,0-2h5V18a1,1,0,0,1,2,0v5c.34,0,.67,0,1-.07V20a1,1,0,0,1,2,0v2.66l1-.22V17a1,1,0,0,1,2,0v4.84c.34-.11.67-.24,1-.38V13a1,1,0,0,1,2,0v7.48c.34-.18.67-.38,1-.59V11a1,1,0,0,1,2,0v7.44c.5-.41,1-.85,1.46-1.32a8.55,8.55,0,0,0,2.4-4.57l-.15.16a1,1,0,0,1-1.42-1.42l2-2a1,1,0,0,1,1.42,0l2,2A1,1,0,0,1,37.71,12.71Z"/><path fill="#2d98f5" d="M36,11a9.8,9.8,0,0,1-.09,1.33,10.57,10.57,0,0,1-3,6.21A21.77,21.77,0,0,1,26.39,23,21.25,21.25,0,0,1,20.2,24.8a.68.68,0,0,1-.2,0,20.63,20.63,0,0,1-2.73.18H11a1,1,0,0,1,0-2h7c.34,0,.67,0,1-.07a18.85,18.85,0,0,0,2-.26l1-.22a17.06,17.06,0,0,0,2-.6c.34-.11.67-.24,1-.38a19.46,19.46,0,0,0,2-1c.34-.18.67-.38,1-.59a18.46,18.46,0,0,0,2-1.45c.5-.41,1-.85,1.46-1.32a8.55,8.55,0,0,0,2.4-4.57A8.76,8.76,0,0,0,34,11a1,1,0,0,1,2,0Z"/><path fill="#2d98f5" d="M37.71,12.71a1,1,0,0,1-1.42,0l-.38-.38L35,11.41l-1.14,1.14-.15.16a1,1,0,0,1-1.42-1.42l2-2a1,1,0,0,1,1.42,0l2,2A1,1,0,0,1,37.71,12.71Z"/></g></svg>